<svg viewBox="0 0 32 32" xmlns="http://www.w3.org/2000/svg"><path d="m24 13a4 4 0 0 0 4-4v-1a4 4 0 0 0 -4-4h-1a4 4 0 0 0 -4 4v3h-6v-3a4 4 0 0 0 -4-4h-1a4 4 0 0 0 -4 4v1a4 4 0 0 0 4 4h3v6h-3a4 4 0 0 0 -4 4v1a4 4 0 0 0 4 4h1a4 4 0 0 0 4-4v-3h6v3a4 4 0 0 0 4 4h1a4 4 0 0 0 4-4v-1a4 4 0 0 0 -4-4h-3v-6zm-3-5a2 2 0 0 1 2-2h1a2 2 0 0 1 2 2v1a2 2 0 0 1 -2 2h-3zm-13 3a2 2 0 0 1 -2-2v-1a2 2 0 0 1 2-2h1a2 2 0 0 1 2 2v3zm3 13a2 2 0 0 1 -2 2h-1a2 2 0 0 1 -2-2v-1a2 2 0 0 1 2-2h3zm8-5h-6v-6h6zm2 2h3a2 2 0 0 1 2 2v1a2 2 0 0 1 -2 2h-1a2 2 0 0 1 -2-2z"/><path d="m0 0h32v32h-32z" fill="none"/></svg>