<svg height="24" viewBox="0 0 24 24" width="24" xmlns="http://www.w3.org/2000/svg"><path d="m11 4h-5.5c-.82842712 0-1.5.67157288-1.5 1.5v13c0 .8284271.67157288 1.5 1.5 1.5h5.5zm1 0v16h6.5c.8284271 0 1.5-.6715729 1.5-1.5v-13c0-.82842712-.6715729-1.5-1.5-1.5zm-9 1.5c0-1.38071187 1.11928813-2.5 2.5-2.5h13c1.3807119 0 2.5 1.11928813 2.5 2.5v13c0 1.3807119-1.1192881 2.5-2.5 2.5h-13c-1.38071187 0-2.5-1.1192881-2.5-2.5zm2.5 1.5c-.27614237 0-.5-.22385763-.5-.5s.22385763-.5.5-.5h4c.27614237 0 .5.22385763.5.5s-.22385763.5-.5.5zm0 2c-.27614237 0-.5-.22385763-.5-.5s.22385763-.5.5-.5h3c.27614237 0 .5.22385763.5.5s-.22385763.5-.5.5zm0 2c-.27614237 0-.5-.2238576-.5-.5s.22385763-.5.5-.5h4c.27614237 0 .5.2238576.5.5s-.22385763.5-.5.5zm0 2c-.27614237 0-.5-.2238576-.5-.5s.22385763-.5.5-.5h3c.27614237 0 .5.2238576.5.5s-.22385763.5-.5.5z"/></svg>